<svg width="225" height="48" viewBox="0 0 225 48" fill="none" xmlns="http://www.w3.org/2000/svg">
<path d="M22.08 47.104C17.8987 47.104 14.1227 46.2507 10.752 44.544C7.424 42.7947 4.8 40.2133 2.88 36.8C0.96 33.3867 0 29.184 0 24.192C0 19.2 0.96 14.8907 2.88 11.264C4.84267 7.63733 7.50933 4.864 10.88 2.944C14.2933 0.981333 18.176 0 22.528 0C27.5627 0 31.424 0.704 34.112 2.112C36.8 3.52 38.144 5.61067 38.144 8.384C38.144 10.5173 37.568 12.288 36.416 13.696C35.264 15.0613 33.6853 15.744 31.68 15.744C29.9733 15.744 28.3093 15.5307 26.688 15.104C25.1093 14.6347 23.2533 14.4 21.12 14.4C18.3893 14.4 16.2347 15.1893 14.656 16.768C13.0773 18.3467 12.288 20.416 12.288 22.976C12.288 25.4933 13.0773 27.6053 14.656 29.312C16.2347 30.976 18.3893 31.808 21.12 31.808C22.5707 31.808 23.8933 31.7013 25.088 31.488C26.3253 31.232 27.52 30.976 28.672 30.72C29.8667 30.464 31.1467 30.336 32.512 30.336C34.7733 30.336 36.4373 31.0827 37.504 32.576C38.5707 34.0267 39.104 35.84 39.104 38.016C39.104 40.192 38.3147 41.9627 36.736 43.328C35.1573 44.6507 33.0667 45.6107 30.464 46.208C27.904 46.8053 25.1093 47.104 22.08 47.104Z" fill="white"/>
<path d="M49.2053 46.9499C46.3467 46.5233 44.4907 45.2219 43.6373 43.0459C42.784 40.8273 42.9547 38.0326 44.1493 34.6619L52.5973 10.6619C53.3653 8.44327 54.24 6.5446 55.2213 4.96593C56.2453 3.38727 57.504 2.17127 58.9973 1.31793C60.5333 0.4646 62.432 0.0379333 64.6933 0.0379333C68.1067 0.0379333 70.6667 0.976601 72.3733 2.85394C74.1227 4.73127 75.5733 7.33393 76.7253 10.6619L85.1093 34.6619C86.304 38.0326 86.5173 40.8273 85.7493 43.0459C85.024 45.2219 83.2107 46.5233 80.3093 46.9499C77.9627 47.2486 75.9147 46.9713 74.1653 46.1179C72.4587 45.2646 71.4347 43.8779 71.0933 41.9579C70.8373 40.6779 70.7947 39.6113 70.9653 38.7579C71.1787 37.9046 71.3707 37.2219 71.5413 36.7099C71.6693 36.2833 71.6693 35.8779 71.5413 35.4939C71.456 35.0673 71.136 34.8539 70.5813 34.8539H58.6773C58.1227 34.8539 57.7813 35.0673 57.6533 35.4939C57.568 35.8779 57.6107 36.2833 57.7813 36.7099C57.952 37.2219 58.1227 37.9046 58.2933 38.7579C58.464 39.6113 58.4427 40.6779 58.2293 41.9579C57.888 43.8779 56.8853 45.2646 55.2213 46.1179C53.5573 46.9713 51.552 47.2486 49.2053 46.9499ZM69.3653 25.8939L66.0373 15.4619C65.952 15.0353 65.8027 14.7153 65.5893 14.5019C65.4187 14.2459 65.12 14.1179 64.6933 14.1179C64.2667 14.1179 63.9467 14.2459 63.7333 14.5019C63.5627 14.7153 63.4133 15.0353 63.2853 15.4619L60.0213 25.8939H69.3653Z" fill="white"/>
<path d="M90.2001 6.52801C90.2001 4.56534 90.7974 3.05067 91.9921 1.98401C93.2294 0.874674 94.8081 0.320007 96.7281 0.320007C98.7334 0.320007 100.333 0.874674 101.528 1.98401C102.723 3.05067 103.32 4.56534 103.32 6.52801V33.792C103.32 34.6027 103.533 35.1787 103.96 35.52C104.387 35.8187 105.091 35.6907 106.072 35.136C108.205 33.8987 110.104 32.9173 111.768 32.192C113.432 31.424 115.267 31.04 117.272 31.04C120.045 31.04 122.136 31.7653 123.544 33.216C124.952 34.6667 125.656 36.5653 125.656 38.912C125.656 41.4293 124.888 43.3707 123.352 44.736C121.859 46.1013 119.448 46.784 116.12 46.784H102.936C100.12 46.784 97.7734 46.464 95.8961 45.824C94.0187 45.1413 92.5894 43.9253 91.6081 42.176C90.6694 40.4267 90.2001 37.888 90.2001 34.56V6.52801Z" fill="white"/>
<path d="M136.184 46.848C133.965 46.848 132.323 46.1867 131.256 44.864C130.189 43.5413 129.656 41.7707 129.656 39.552V9.72801C129.656 6.48535 130.531 4.09601 132.28 2.56001C134.072 1.02401 136.205 0.256012 138.68 0.256012C141.027 0.256012 143.011 1.02401 144.632 2.56001C146.296 4.09601 147.512 6.52801 148.28 9.85601L153.272 31.552H154.936L159.928 9.85601C160.696 6.52801 161.912 4.09601 163.576 2.56001C165.283 1.02401 167.309 0.256012 169.656 0.256012C172.131 0.256012 174.243 1.02401 175.992 2.56001C177.784 4.09601 178.68 6.48535 178.68 9.72801V39.552C178.68 41.7707 178.125 43.5413 177.016 44.864C175.949 46.1867 174.307 46.848 172.088 46.848C169.955 46.848 168.312 46.1867 167.16 44.864C166.008 43.5413 165.432 41.7707 165.432 39.552V22.336C165.432 21.9093 165.368 21.5253 165.24 21.184C165.155 20.8 164.877 20.608 164.408 20.608C164.024 20.608 163.747 20.8 163.576 21.184C163.405 21.5253 163.277 21.9093 163.192 22.336L160.76 38.464C160.461 40.2133 160.099 41.728 159.672 43.008C159.288 44.2454 158.669 45.2053 157.816 45.888C156.963 46.528 155.725 46.848 154.104 46.848C152.525 46.848 151.288 46.528 150.392 45.888C149.539 45.2053 148.899 44.2454 148.472 43.008C148.088 41.728 147.768 40.2133 147.512 38.464L145.016 22.336C144.973 21.9093 144.867 21.5253 144.696 21.184C144.525 20.8 144.227 20.608 143.8 20.608C143.373 20.608 143.096 20.8 142.968 21.184C142.84 21.5253 142.776 21.9093 142.776 22.336V39.552C142.776 41.7707 142.2 43.5413 141.048 44.864C139.939 46.1867 138.317 46.848 136.184 46.848Z" fill="white"/>
<path d="M183.876 12.544C182.639 9.89868 182.362 7.53068 183.044 5.44001C183.727 3.30667 185.028 1.81334 186.948 0.960009C188.911 0.106674 190.895 0.106674 192.9 0.960009C194.948 1.77068 196.442 3.49867 197.38 6.14401C197.85 7.46667 198.191 9.00267 198.404 10.752C198.618 12.4587 198.852 14.1227 199.108 15.744C199.407 17.3227 199.876 18.6453 200.516 19.712C201.199 20.736 202.244 21.248 203.652 21.248C205.06 21.248 206.106 20.736 206.788 19.712C207.471 18.6453 207.94 17.3227 208.196 15.744C208.495 14.1227 208.73 12.4587 208.9 10.752C209.114 9.00267 209.455 7.46667 209.924 6.14401C210.906 3.49867 212.399 1.77068 214.404 0.960009C216.41 0.106674 218.394 0.106674 220.356 0.960009C222.276 1.81334 223.578 3.30667 224.26 5.44001C224.943 7.53068 224.666 9.89868 223.428 12.544C222.788 13.9093 221.935 15.2107 220.868 16.448C219.844 17.6427 218.714 18.88 217.476 20.16C216.239 21.44 215.002 22.8693 213.764 24.448C212.527 25.984 211.396 27.7547 210.372 29.76V40.704C210.372 42.4533 209.732 43.904 208.452 45.056C207.172 46.208 205.572 46.784 203.652 46.784C201.775 46.784 200.175 46.208 198.852 45.056C197.572 43.904 196.932 42.4533 196.932 40.704V29.76C195.951 27.7547 194.842 25.984 193.604 24.448C192.367 22.8693 191.13 21.44 189.892 20.16C188.655 18.88 187.503 17.6427 186.436 16.448C185.37 15.2107 184.516 13.9093 183.876 12.544Z" fill="white"/>
</svg>
