<svg width="254" height="220" viewBox="0 0 254 220" fill="none" xmlns="http://www.w3.org/2000/svg">
<ellipse cx="105.306" cy="97.8896" rx="43.311" ry="59.5958" transform="rotate(30 105.306 97.8896)" fill="#8DFFC3"/>
<ellipse cx="165.306" cy="97.8896" rx="43.311" ry="59.5958" transform="rotate(30 165.306 97.8896)" fill="#FFF46C"/>
<ellipse cx="3.7879" cy="5.21214" rx="3.7879" ry="5.21214" transform="matrix(-0.866025 -0.5 -0.5 0.866025 164.773 95.6369)" fill="#3C70FF"/>
<ellipse cx="3.7879" cy="5.21214" rx="3.7879" ry="5.21214" transform="matrix(-0.866025 -0.5 -0.5 0.866025 126.773 95.6369)" fill="#3C70FF"/>
<ellipse cx="3.7879" cy="5.21214" rx="3.7879" ry="5.21214" transform="matrix(-0.866025 -0.5 -0.5 0.866025 88.7731 95.6369)" fill="#3C70FF"/>
<path d="M118.26 47.1853L119.262 45.4543L118.26 47.1853ZM128.529 60.849L126.632 61.4814C126.848 62.1311 127.382 62.6248 128.047 62.7899C128.711 62.9551 129.414 62.7688 129.91 62.2961L128.529 60.849ZM91.7485 152.807C92.7792 152.41 93.2927 151.252 92.8955 150.222C92.4983 149.191 91.3407 148.678 90.3101 149.075L91.0293 150.941L91.7485 152.807ZM177.529 47.1853L176.703 49.0066L177.529 47.1853ZM122.529 150.941L123.44 149.16L122.529 150.941ZM123.529 126.349L124.903 127.803L123.529 126.349ZM197.529 126.349L196.422 128.015L196.442 128.028L196.463 128.041L197.529 126.349ZM221.529 146.349L220.356 147.969C221.187 148.571 222.339 148.446 223.022 147.68C223.705 146.913 223.697 145.754 223.004 144.998L221.529 146.349ZM191.014 131.909C189.943 131.641 188.857 132.292 188.589 133.364C188.321 134.436 188.973 135.521 190.044 135.789L190.529 133.849L191.014 131.909ZM118.26 47.1853L117.258 48.9164C121.977 51.6471 124.732 55.782 126.632 61.4814L128.529 60.849L130.427 60.2165C128.326 53.9159 125.082 48.8223 119.262 45.4543L118.26 47.1853ZM51.6737 77.1007L53.4047 78.1024C61.4124 64.265 72.6608 54.147 84.2871 48.9236C95.9168 43.6987 107.763 43.4216 117.258 48.9164L118.26 47.1853L119.262 45.4543C108.37 39.1516 95.1177 39.6726 82.6479 45.2749C70.1748 50.8787 58.3232 61.6171 49.9426 76.0989L51.6737 77.1007ZM91.0293 150.941L90.3101 149.075C79.5173 153.234 68.7115 153.098 59.9144 148.007L58.9126 149.738L57.9109 151.469C67.995 157.305 80.1131 157.291 91.7485 152.807L91.0293 150.941ZM58.9126 149.738L59.9144 148.007C50.4194 142.513 44.7572 132.104 43.4928 119.417C42.2289 106.734 45.397 91.9399 53.4047 78.1024L51.6737 77.1007L49.9426 76.0989C41.5621 90.5807 38.1565 106.207 39.5126 119.814C40.8682 133.417 47.0197 145.167 57.9109 151.469L58.9126 149.738ZM128.529 60.849L129.91 62.2961C134.005 58.3897 141.34 52.9977 149.897 49.6389C158.459 46.2785 167.98 45.0485 176.703 49.0066L177.529 47.1853L178.356 45.3641C168.278 40.7912 157.549 42.3386 148.436 45.9154C139.319 49.4939 131.554 55.1992 127.149 59.4019L128.529 60.849ZM177.529 47.1853L176.703 49.0066C187.588 53.9462 193.325 64.5936 194.411 77.7842C195.499 90.9904 191.87 106.478 184.274 120.391L186.029 121.349L187.785 122.307C195.689 107.83 199.56 91.5681 198.398 77.4558C197.234 63.3279 190.97 51.0882 178.356 45.3641L177.529 47.1853ZM186.029 121.349L184.274 120.391C176.766 134.142 165.135 143.221 153.521 147.902C141.822 152.616 130.472 152.755 123.44 149.16L122.529 150.941L121.619 152.722C130.058 157.035 142.707 156.572 155.016 151.612C167.409 146.617 179.793 136.945 187.785 122.307L186.029 121.349ZM122.529 150.941L123.44 149.16C121.017 147.922 119.462 146.49 118.547 145.011C117.642 143.55 117.288 141.929 117.448 140.156C117.777 136.516 120.294 132.155 124.903 127.803L123.529 126.349L122.156 124.895C117.235 129.542 113.92 134.752 113.465 139.796C113.233 142.364 113.75 144.863 115.146 147.117C116.531 149.354 118.709 151.234 121.619 152.722L122.529 150.941ZM123.529 126.349L124.903 127.803C132.164 120.945 160.415 104.082 196.422 128.015L197.529 126.349L198.636 124.683C160.644 99.4316 130.351 117.155 122.156 124.895L123.529 126.349ZM197.529 126.349L196.463 128.041C205.628 133.819 210.129 137.241 213.005 139.914C214.435 141.243 215.484 142.406 216.527 143.625C217.561 144.832 218.65 146.167 220.055 147.7L221.529 146.349L223.004 144.998C221.659 143.531 220.672 142.316 219.566 141.023C218.468 139.742 217.311 138.455 215.728 136.984C212.579 134.057 207.831 130.479 198.596 124.657L197.529 126.349ZM221.529 146.349L222.703 144.729C219.834 142.651 214.9 140.203 209.282 137.922C203.623 135.624 197.117 133.434 191.014 131.909L190.529 133.849L190.044 135.789C195.942 137.264 202.269 139.392 207.777 141.628C213.325 143.881 217.891 146.183 220.356 147.969L221.529 146.349Z" fill="white"/>
<path d="M45.0001 65.349C41.3335 70.0157 34.5001 81.349 32.0001 95.849" stroke="white" stroke-width="4" stroke-linecap="round"/>
<path d="M37.5001 52.849C28.5001 61.849 19.1001 85.849 17.5001 99.849" stroke="white" stroke-width="4" stroke-linecap="round"/>
<path d="M32.5001 37.849C15.5001 54.349 4.00012 87.349 2.00012 105.849" stroke="white" stroke-width="4" stroke-linecap="round"/>
</svg>
